<?xml version="1.0" encoding="UTF-8"?>
<svg id="Layer_2" data-name="Layer 2" xmlns="http://www.w3.org/2000/svg" viewBox="0 0 140 216.92">
  <g id="Layer_1-2" data-name="Layer 1">
    <path id="Mike" d="M30,107V40C30,17.91,47.91,0,70,0h0c22.09,0,40,17.91,40,40v67c0,22.09-17.91,40-40,40h0c-22.09,0-40-17.91-40-40ZM130,87.66c-5.52,0-10,4.48-10,10v11.33c0,25.83-21.01,46.84-46.84,46.84h-6.33c-25.83,0-46.84-21.01-46.84-46.84v-11.33c0-5.52-4.48-10-10-10S0,92.13,0,97.66v11.33c0,34.55,26.35,63.05,60,66.49v21.45h-23.5c-5.52,0-10,4.48-10,10s4.48,10,10,10h67c5.52,0,10-4.48,10-10s-4.48-10-10-10h-23.5v-21.45c33.65-3.44,60-31.94,60-66.49v-11.33c0-5.52-4.48-10-10-10Z"/>
  </g>
</svg>