<?xml version="1.0" encoding="UTF-8"?>
<svg id="Layer_2" data-name="Layer 2" xmlns="http://www.w3.org/2000/svg" viewBox="0 0 359.27 409.6">
  <g id="Layer_1-2" data-name="Layer 1">
    <path d="M25,79.8h0C11.25,79.8,0,91.05,0,104.8v200c0,13.75,11.25,25,25,25h0c13.75,0,25-11.25,25-25V104.8c0-13.75-11.25-25-25-25ZM102.32,127.94h0c-13.75,0-25,11.25-25,25v101.85c0,13.75,11.25,25,25,25h0c13.75,0,25-11.25,25-25v-101.85c0-13.75-11.25-25-25-25ZM179.64,0h0c-13.75,0-25,11.25-25,25v359.6c0,13.75,11.25,25,25,25h0c13.75,0,25-11.25,25-25V25C204.64,11.25,193.39,0,179.64,0ZM256.95,62.38h0c-13.75,0-25,11.25-25,25v225.95c0,13.75,11.25,25,25,25h0c13.75,0,25-11.25,25-25V87.38c0-13.75-11.25-25-25-25ZM334.27,127.94h0c-13.75,0-25,11.25-25,25v101.85c0,13.75,11.25,25,25,25h0c13.75,0,25-11.25,25-25v-101.85c0-13.75-11.25-25-25-25Z"/>
  </g>
</svg>