<?xml version="1.0" encoding="UTF-8"?>
<svg id="Layer_2" data-name="Layer 2" xmlns="http://www.w3.org/2000/svg" viewBox="0 0 130 57.82">
  <g id="Layer_1-2" data-name="Layer 1">
    <path id="Lines" d="M124.5,11H5.5c-3.02,0-5.5-2.47-5.5-5.5h0C0,2.47,2.47,0,5.5,0h119c3.02,0,5.5,2.47,5.5,5.5h0c0,3.03-2.47,5.5-5.5,5.5ZM130,28.91h0c0-3.03-2.47-5.5-5.5-5.5H5.5c-3.02,0-5.5,2.47-5.5,5.5h0c0,3.03,2.47,5.5,5.5,5.5h119c3.02,0,5.5-2.47,5.5-5.5ZM65,52.32h0c0-3.03-2.47-5.5-5.5-5.5H5.5c-3.02,0-5.5,2.47-5.5,5.5h0c0,3.03,2.47,5.5,5.5,5.5h54c3.02,0,5.5-2.47,5.5-5.5Z"/>
  </g>
</svg>